<mxfile host="app.diagrams.net" modified="2022-04-06T17:32:46.005Z" agent="5.0 (Windows NT 10.0; Win64; x64) AppleWebKit/537.36 (KHTML, like Gecko) Chrome/97.0.4692.71 Safari/537.36" etag="SD1pTWweThxdymE65Pn9" version="17.3.0" type="github">
  <diagram id="0VeNMl7IMQnOAHNx3wta" name="Page-1">
    <mxGraphModel dx="1564" dy="2036" grid="1" gridSize="10" guides="1" tooltips="1" connect="1" arrows="1" fold="1" page="1" pageScale="1" pageWidth="850" pageHeight="1100" math="0" shadow="0">
      <root>
        <mxCell id="0" />
        <mxCell id="1" parent="0" />
        <mxCell id="o5UvQWIh1D4CBzxNLM2H-186" style="edgeStyle=orthogonalEdgeStyle;rounded=0;orthogonalLoop=1;jettySize=auto;html=1;fontSize=60;" edge="1" parent="1" source="o5UvQWIh1D4CBzxNLM2H-159">
          <mxGeometry relative="1" as="geometry">
            <mxPoint x="1048" y="30" as="targetPoint" />
          </mxGeometry>
        </mxCell>
        <mxCell id="o5UvQWIh1D4CBzxNLM2H-187" style="edgeStyle=orthogonalEdgeStyle;rounded=0;orthogonalLoop=1;jettySize=auto;html=1;exitX=1;exitY=0.25;exitDx=0;exitDy=0;fontSize=60;" edge="1" parent="1" source="o5UvQWIh1D4CBzxNLM2H-159" target="o5UvQWIh1D4CBzxNLM2H-143">
          <mxGeometry relative="1" as="geometry" />
        </mxCell>
        <mxCell id="o5UvQWIh1D4CBzxNLM2H-159" value="" style="rounded=0;whiteSpace=wrap;html=1;fontSize=60;rotation=-90;labelBackgroundColor=none;fillColor=#E6E6E6;strokeColor=none;" vertex="1" parent="1">
          <mxGeometry x="692.75" y="-50" width="142.5" height="460" as="geometry" />
        </mxCell>
        <mxCell id="o5UvQWIh1D4CBzxNLM2H-1" style="edgeStyle=orthogonalEdgeStyle;rounded=0;orthogonalLoop=1;jettySize=auto;html=1;exitX=0.5;exitY=0;exitDx=0;exitDy=0;entryX=0.5;entryY=1;entryDx=0;entryDy=0;" edge="1" parent="1" source="_Oc1O_q76i6-kQ9JLxwn-12" target="_Oc1O_q76i6-kQ9JLxwn-13">
          <mxGeometry relative="1" as="geometry" />
        </mxCell>
        <mxCell id="_Oc1O_q76i6-kQ9JLxwn-12" value="" style="shape=image;verticalLabelPosition=bottom;labelBackgroundColor=default;verticalAlign=top;aspect=fixed;imageAspect=0;image=https://cdn2.iconfinder.com/data/icons/font-awesome/1792/user-512.png;" parent="1" vertex="1">
          <mxGeometry x="180.5" y="-140" width="60" height="60" as="geometry" />
        </mxCell>
        <mxCell id="o5UvQWIh1D4CBzxNLM2H-7" style="edgeStyle=orthogonalEdgeStyle;rounded=0;orthogonalLoop=1;jettySize=auto;html=1;entryX=0.5;entryY=1;entryDx=0;entryDy=0;" edge="1" parent="1" source="_Oc1O_q76i6-kQ9JLxwn-13" target="o5UvQWIh1D4CBzxNLM2H-2">
          <mxGeometry relative="1" as="geometry" />
        </mxCell>
        <mxCell id="_Oc1O_q76i6-kQ9JLxwn-13" value="" style="shape=image;verticalLabelPosition=bottom;labelBackgroundColor=default;verticalAlign=top;aspect=fixed;imageAspect=0;image=https://git-scm.com/images/logos/downloads/Git-Icon-Black.png;" parent="1" vertex="1">
          <mxGeometry x="180.5" y="-280" width="60" height="60" as="geometry" />
        </mxCell>
        <mxCell id="_Oc1O_q76i6-kQ9JLxwn-18" style="edgeStyle=orthogonalEdgeStyle;rounded=0;orthogonalLoop=1;jettySize=auto;html=1;exitX=1;exitY=0.5;exitDx=0;exitDy=0;entryX=0;entryY=0.5;entryDx=0;entryDy=0;" parent="1" source="_Oc1O_q76i6-kQ9JLxwn-15" target="_Oc1O_q76i6-kQ9JLxwn-17" edge="1">
          <mxGeometry relative="1" as="geometry" />
        </mxCell>
        <mxCell id="_Oc1O_q76i6-kQ9JLxwn-15" value="" style="shape=image;verticalLabelPosition=bottom;labelBackgroundColor=default;verticalAlign=top;aspect=fixed;imageAspect=0;image=https://symbols.getvecta.com/stencil_12/1_aws-codecommit.d0068240c1.jpg;" parent="1" vertex="1">
          <mxGeometry x="361.5" y="-420" width="60" height="60" as="geometry" />
        </mxCell>
        <mxCell id="o5UvQWIh1D4CBzxNLM2H-6" style="edgeStyle=orthogonalEdgeStyle;rounded=0;orthogonalLoop=1;jettySize=auto;html=1;entryX=0;entryY=0.5;entryDx=0;entryDy=0;" edge="1" parent="1" source="_Oc1O_q76i6-kQ9JLxwn-17" target="_Oc1O_q76i6-kQ9JLxwn-19">
          <mxGeometry relative="1" as="geometry" />
        </mxCell>
        <mxCell id="_Oc1O_q76i6-kQ9JLxwn-17" value="" style="shape=image;verticalLabelPosition=bottom;labelBackgroundColor=default;verticalAlign=top;aspect=fixed;imageAspect=0;image=data:image/png,iVBORw0KGgoAAAANSUhEUgAAANIAAADxCAMAAACJfxnoAAABFFBMVEX///91nD5LYSy3yp08SSl3nz9MYyxKXyxYczFzmzpQaS5IXieHqVl4oD9xmTZld0w9VhPL0Maiu4JniThukjtylzw5RCi0yJlrlipulzCyx5a8z6JBUio2UQDv8+mWqXxBWRw6VAw9Syn3+fTl7N1GWSskNQDn6uR/o00wPxg2RCHP28DBx7ny8/B8i2pnkyFhfzaUsW3c5dFWazq9zqiqsp+btniRl4no7uDH1rPX29KHlHefqZOWoYmjqJ0rOw9UX0XCxb6ip5yFmWuitYiNrGNrgFBuflhcb0GyvaNhhSx3f21KVTpNXDiJj4AiQQA1Sg9faVF9hHQ1RhktORpJZR5VeCFehh61uLFqcl+ntZd6jmBO9W4DAAAM4ElEQVR4nO3d7UOiyhoA8NBECXPTXgTTQltDTSotrex9y13P7p497Z7Tvdvp//8/7syACjgMA6KMXp5P58ORnR8zzPMMDLGyEkUUUUQRRRRuoe6F3YKAQ70uS7llQvWOy2KMy0itj2G3JKDIfimJsRjPcVzmpNUOuzUBRPYD6KGYTgIoKX0UdoumjObZBgINSRwnSLVFRnX4IWhMAiiZuwq7Zf7ioCOOQWYSCFk4Pwi7fZ5Du1GUmDksJICSC4uFUm9LVtAECaBOFihRgbxqB2FIcPrrLkaiAnl1EoQlQdQCJKoeyqu0JJSo2EYN8yo9CSYqhrPvOK96IaHsy2SisqUhLySYfTPMJSqto2wQPG4kEHImzhJKu1Vwk5wnEsq+rCQq9Xoir/oiwcVH7jJszQpMQzQgOhJEhZ59e18cZ21fJJio+mEmKkIa8k0KNVE1B/QgL6TQlokdUl6dkoSWiefz9RyANOQJ5JXEwTl9jolKu9mgmuSmIwGUlJ8PSr31AfJFgj01h2Wihl8NzYgE5/TcrHsqW/IF8k3iuJNZ91PWpToNniRFpP9fUuf5aC9sUq/zHtzatyMq25JUy7dDI6nNY7GspOREICUFyqvJLVCjZKST/vkf/qbwKUjyH7d8CdYqyVQCZN+pSwojr0ISDEH+mpw3KfGq6LUXJE299lWvjUJhSOK4zfmT1owj6CSUff2iTOtVpki+176W26aMkXw9IrWtV5kjeV7QN89s61UGSZ7Wvpj7wEySqO88m5+vsk6iWdBrN/jVELMkjiNnX81xvcoyCaIcsu8ory4cySH7ku8Ds07CZd9rh8eRC0NCKAvpA/mu3CKQOCEdkSJSRGKVxC8VCWiS1SrJtHCkanF1dbVIOsTikPgYn6xWVlEsCalaNDxLQIJXj4mzDCR09awuBwnTPQtOquI5C0za3kytVSs7IJaGBP6JxDq3tZnii6t22AKReEBaX08kTEcErgS3dZqKFXd26vVGw43E87zl9yGTkmBy21mtrp1ubnNAYoWtJ742P337Xj+8rzfwJF4/RKW4drrF+XAFS+LNqRQNsyqfOt3aXjfDJHjLSVMfP739aa/xhprRAeCJ2eLWPbmCI6FKZzL3IFgxmTrd5IyxKI3uopmfEAINn8TMjkNXgtoVHAnDscvQWMyc2EnWvnH6NXV/BUIit2ccjfr94cOP5sqY5K6Z7C83VxCkJEg9yeLODj75GAE09293Wc18kOxfL3/XGzQcs6tSBZfnurMrENI6nKIT25unKb66Oilr1A/rDz8e1ZWJULN3P36u3sPZz6NrFVyd2/jrKxjS8GBwkt7eQp1m0EDnrH6762mTnHFovd8Xb98RzIMM9lcytTnpCpRkkiU41Gl/XuA6Bw8D0/qvh0NvsKHLPA5nQRrTMjlKzzjQWGx46jJbf82SxHE+SEaXeR6LI1dinU2SAfM4FuHVW+RP15LskowYjsU6WVYpFqtJoBnf7Eg5Nixskh72sdho1GGuW63oFB5mbaNm5I0CgCen5dBJBswYiyDTfbv4/djT1I2RwQAlq9VisVJBA5FYbjBCMkIdJTrN2DvLJ3UK5vpyKnvJ1UPAJK3X7Fznzo8+um8805IvLy9//02ePvBlL56kl52nm1vg/0ZrB+up8Eo6ULPNm+MPfLm8oSgZWZakRLobv2rvkWj6WHSvqlB5aHZNkExFNCp9KkWw3APLoq1ttHZFOGoSsHRuv5wp5Y0NRTQGgHEqkSzD9QsunaY+3v1AMKIMjcOUPg5tpLPSC6yiG5ZpdceISjG5ljo9/frV9oAXd4p7zZvrDxsl2C2idQ1mG/gZIDuR07n4UZuwu04dz4uOrEbjn3/qL6//+W/N2hQ1+/j7049vbw+Ve5AL7+9NSQPNrvWfv+4eVWK5utI7U0qmbrEF9uo0Oi3dKlwdXTp2mtZ7/PTtwVJ8oDn/HrS1Xvn59uviDsyWhNZpag/wLn69fa8fwun158XvLNliRLaMtZBIIxmkyRzstI+OnQZzNJzwDw8bD28/ACNLYjjzPPyGvDuZRLJ22kmtW7hqO73o6KlJ0waR5Oktswy80qRaH078ob6YGhjJ0mkzf41kriQU8lG22bm9BuntlS5bs09KvIJZFKYEMYU6Teh34cTvieb7PMyIZF8C6nOIUGvBOcSlsbAUu/2ilCU5ke7nCvnzq6N2+5L+fMyJZIQ+8Uty32E4wpyv6DkfVeIC+AH4BZx3pBMpUeu3urnC+RV5G/N8SWMaHI6ZdDdv3Y88MOV8zOJC0IkSuSAKhzSWWQuiQNZLoZJmswSMSBEpIkWkiBSRIlJEikgRKSJFpIgUkSJSRIpIESkiRaSIFJEiUkSKSBEpIjFEGpg2aGFJ6GEtw89qhYlntdnO7fFZWd8RqJMsz9RlLt3v5gpx8t/QCoU03G/Uyp3jnverveYNkEFFogYMxs4H2o0P8973gM432hXmus2I2jAnkmghjffuzWEb2GxI65/PxHIJXhOvxhAj7rBcBBL6u62a2ss2/6UZYmyT9Ct/Ofbj6duChHQ377Kn3E8ceDng1HtbjW7JOG3e8t6k4W/29j6220dX57v5Aoj4Fe3EkiV+UcG1W+AWu7zzNl3QsMv20bneJpBdjtofiRvrDg72LiHj6jwOf5KHETcC/ndhF8Jczk9vcFbG7HknkfQ9da77chEmDtsVt7QKNhXwjH2D1uYN1j4/Ped3d+OTsbsLeiuX67bSNcH1BQX0ZsLxWak8uQUe0y0nYEI+J6dyMGDgaTadYWzkc620YN+8BmPwvv8cH7kApNvq92vgVIIQBMHDayQqelFB3DB1mk5BFllI5+IuE/LBHhg0qGPImHi80O3XUAOxlbgoKrEP7wCSNkFMw8Tryz6aCreWDhT9zRhJkmEp5pYnwSi7gpeMq2UXacCcorfReXEhiutWyBSkYSPVbPO2QDUha+9P+88FONqxV4FJk2vB025qKFtvmY2pWgmMFFHkP0PaM7qSJ2hQI1g0TJHQ5Z/Xp2Uwa62oJXEcisIPkC0/7DagSXOTGjZIB3sfjyBmdPmjWTkfzz/vP72DSlVBqJhhi50NPj/tIw3+mgiXpM9lecfLX++QIU1MDi9xkcX3aofp33UuG9Py3T7P5NvPB0bGpMToIv26EWb4jjrMkt5J41FGj9GLAVBhoOtmFje9BDRh1tKtbi7vYQ0GR9mVt47RNd2+ZRYIkoTuEWVq6N4QSH76PwjOt+tLRJgikyZ2oaYm2Oe0YEiGBb46gj2R+YJDhQYn5l2vowxFAacJjCSmTd3iFLCyt3dX9vXzPiznyb/EajIO6TMgUiw5eDIV5GQZSPpjUhkmRWs5Twq97HQqBgIlwbwW+7yPXz5ZGgRnWftfi0JJH7gKxO7anSw7Z0tCLVPO3h1ON1hI9WFxgsY+9m96wSJGBCVMHncAmHAwZefMSaPOeh43Ci5v9aFiag8iofSzr9h/Lio8dI37i1R2zoWkNwt1FhplNVvZiDJWrd02KrZ93EHQOIR3AfKGxgtnJiSjVduZSQwHnwQUduOjKRtLGvWXD83sSOBo2xaMAHJWbnKadybFWPtbkxZSv4XPv4tL2nScBheXlATXBbjacaqFJcWMnLU/0VmLTIohlmivmxadpHdW7N1UNy0BSWfBztLLgyUhIRUo52BnLQ/JYA2enpaKpLNIh1hIEjkiUkSKSAtKcvuW2QKQ7N8yc/viHPMk7Pdeid8FZJzk+FVewtcbmSY5fr0RoZy+sckwyf0L1/gvobJKcv8SKgrc92rZJFF+r1ZH2b8qzCLJw1eFYdi//cweyeO3n2FYv9DNGsnHF7oRyvQddbZIPr+jDmP8tXuWSFN87R6h9Ow7ImW+zp/0atn6LsuEvEoXKPsiUkaWhNy/hEpwNqTM7aCkn1dAcs+rdNERFUGWMq2rS7ddxrMgSXsrWvOaLytiSkrQ5FVKVH/42kkoJBhq5zhFm1e9RWik2UVEWghSad6kmb9Goh3jV1SzIoG8OvtXlVTHtW/wJJBX5/PulXbjA+WDJGeCyatUcdBRMGvfQEmCLASXV+miE/OG8kbyuLwLKjAL+oBIgpQOA4RQA+JLWD5JPtarQUb2Cy2KlpSRfC/vggqw9qVC0ZFAGnJ+cW5+oRJvp3shySdTL++CCtLtdHqSnMnP94sP5HC+nU5LAmmIJRAMt5KCSBIkbjbLu2kDezudghRSXqWLiTvPFKQQ8ypdOGZfB1LmJNS8ShcO2RdLYiCv0gX2uS+GxEhepQv1egI1QSI+jmQxJhKVjSTLTOVVutBuFMWJJHPM5VW6sKx9xyRm8ypdjNe+/AjEcF6li2Gi4o1JLs1+GnKP7Ae4ouI5348jWYwezL6Lk1fpQr0uT/c4ksVQlw0URRRRRBHFLOJ/0i94gL7OJBYAAAAASUVORK5CYII=;" parent="1" vertex="1">
          <mxGeometry x="546.5" y="-420" width="52.28" height="60" as="geometry" />
        </mxCell>
        <mxCell id="o5UvQWIh1D4CBzxNLM2H-145" style="edgeStyle=orthogonalEdgeStyle;rounded=0;orthogonalLoop=1;jettySize=auto;html=1;exitX=0.5;exitY=1;exitDx=0;exitDy=0;fontSize=14;" edge="1" parent="1" source="_Oc1O_q76i6-kQ9JLxwn-19" target="o5UvQWIh1D4CBzxNLM2H-144">
          <mxGeometry relative="1" as="geometry">
            <mxPoint x="750" y="-300" as="targetPoint" />
          </mxGeometry>
        </mxCell>
        <mxCell id="o5UvQWIh1D4CBzxNLM2H-146" style="edgeStyle=orthogonalEdgeStyle;rounded=0;orthogonalLoop=1;jettySize=auto;html=1;fontSize=14;" edge="1" parent="1" source="_Oc1O_q76i6-kQ9JLxwn-19" target="o5UvQWIh1D4CBzxNLM2H-143">
          <mxGeometry relative="1" as="geometry">
            <Array as="points">
              <mxPoint x="750" y="-320" />
              <mxPoint x="648" y="-320" />
            </Array>
          </mxGeometry>
        </mxCell>
        <mxCell id="o5UvQWIh1D4CBzxNLM2H-167" style="edgeStyle=orthogonalEdgeStyle;rounded=0;orthogonalLoop=1;jettySize=auto;html=1;exitX=0.5;exitY=1;exitDx=0;exitDy=0;entryX=0.5;entryY=0;entryDx=0;entryDy=0;fontSize=60;" edge="1" parent="1" source="_Oc1O_q76i6-kQ9JLxwn-19" target="o5UvQWIh1D4CBzxNLM2H-165">
          <mxGeometry relative="1" as="geometry" />
        </mxCell>
        <mxCell id="_Oc1O_q76i6-kQ9JLxwn-19" value="" style="shape=image;verticalLabelPosition=bottom;labelBackgroundColor=default;verticalAlign=top;aspect=fixed;imageAspect=0;image=data:image/png,iVBORw0KGgoAAAANSUhEUgAAAOEAAADhCAMAAAAJbSJIAAAA21BMVEX1hTb////7v5OdUCX0fB77vI71gzH96dz2l1j96N///Pn7xJz92cH7vZD94Mz7wJX949L1gCr1fyb1gS30fBydTySXQACXTCSWPgD5vJnygzX838/+9e/6x6r2lFP4rH/+8eqaShqZRhH70Lj2jUa0XimsWSjGaS33oWz6ya35to/3nGPadTHr3df1iT34q3zdxrzTtqrNbS6vdVnheTLGn43n19D5wJ/3pXLodh/SaBb8yqa6inTWu6+kXTjFnYurbU7uybbGXxCmSwOzWR2mY0C+kHvGnoy1gGclRNp+AAARkUlEQVR4nO2de3+aPBvHYTBU5jpBwPMJtWqtrT33vtd1uw/r0/f/ip4EBJIQJIFE3f3Z7y9XJ/D1Sq5TAirqf13KsS9Aun4T/vr6Tfjr61CEZn9cq/Tqgc56tdq4f6ATSyfsN6ad0Xpm2TqUHSp8bQyXF4N6xZR8BRIJa9PO+srRbatpGApNRrMJaO3ZslMfy7sMOYRmrzN0HNuik6VALdtxhk89OdaUQNh4qto6GxzKael29akh/nIEE5r16wJ0CKU1OhNsSpGE5nRp2c2CdJGauvU8FQkpjrB3rZfG20Ha+nVP2HUJIjQHV7oYvB2kfvUkKGIKIayMQHQTyAdl2M61EL8jgLBedUSaL1HTGdZPgHA600WbL5Ghz6ZHJpwaXMOzaVm2ZfFY3LCVkoylCOtXNs+16spzZ7AadJ4Vrmmrz0qN1RKElaHDfp2GU10lyed4xffZYQmfU5jQvOa4RkUfkgGuN9TZP244z4VjR1HCKU90N2zaXJryDNWmPjgo4ZjHAEpzRjfAeMbjc+xZ5XCEHZ4BqljVrDTTHHK5VadzIMLajMODAgsO9xxrxhVLC5mRn3DAZUBAuM9H9C2uYxUxIy+hueaZgUDO/iqh7vAdzq7yOlVOwp7BmYI2n3OOuObM+Zo2Z2HFR/jE+Y2DQJjXY6pwjgkwKvhGKhfhkvtqjCV+hPF0MCWYq9yJu04cVBhhf8bnFqBsLKUcLx3btp1njHHK5ZkDWRkBtiRhpVmgSnLQUFjZ1ZFNvYZic4982IBkT1SZCXtFykADjYVm3Bg2rtAjX/EfF4QN5nqDlXBa4JsG1rpGDvGUDEd7hfx9WaiCdlbkJZYj5HeiIeEFcoxhQmKskb+PivVAnCeRhJ1igIqFOnYMBPn7Bb8DCxHZogYT4QV3lNgJs+EVYkN0Il4U7WPpF+SFFiW8KGhBYh4io9FCr+26cKeOCZGBsLAFga2qyHFqyRfloOGCP+QniAwDNZ+woJMJZaNHimcz7iSKf4FM7iaXcFUGUNGxyNxxLMMwLB27rF4ZQsXJ7TXmEZ6VAsRdDchfOuvZuoOnXAWDRYyYV2rkENbKAQKfkrdQZhaMFbHyqpf9hKZStmNv57XInvgTb1yGsv9L3E/I1SmiS99fBvTLDpKcRlAO4ajs9wvPv7+YWwtYtrJHRQnLudFI+j6H3hHwHeZk4XsIK0IA955/IOoUe7qM2YTlvUx8/iwrFk3oU8ILTlbC57JuPJF+TXN35nOpWI/Jym7pZRIWK3mzLoCyzDnlbUzuVXZuk0XYF+ICEtkzbJOMOYWLqyKXx+2sqJRFKMKLxxrqhmLY1nLQG/fN/rg3WNu2ARdNBSI21xkkGYRTcVMEfL3TxhC22Qxbd6CCbWFNp1op0EjMlp4xTumEYscorHd7S8eO25FG09afQdXREefMlMwUmE74LHSDTLh20Z+OhjYwoONYw4twUhav7qmnuaayUAl7Iv0oMNksPvK4UqkktcBQ7E4ch9omphLyrVvmy6adRCW6b+VFj/s0woHgSJFVX5gi3RkUtVSjEJauSVPC1ikSjUUTKk2Ks6EQFu3QZitjUbNch4Ymi9J7SxMKqElJ2fTqQmg4DOWkjZgmLNkZoon21QI9CR8seKs5g1D85MiMVBK+S4pTSxGKn4VE6zsR7yYFFqWNSBJKmIVA9AJVdNgNpJMzkSQUmypGojgAIPGOBsgiGwoEoSlnx7ZD69oWWcBnkLGfUIIDh9JpAbEhwacpsFbbSyhlaqTPGqgu59tE8nwKYUPOwKEHRAnhMBC+3kUQyohQUE1aV7rw6jbfyXBCSd8qvvciUrFdJgzCAwZGKMnPKPSAKGnOk7MeI5SRZISi9VAkDVJyxKCEfTnuG4qyjHmos6GE8gapoqeXTvg3ljILq9ZQQnmDlNiFGUhSOITChilCaEoKhlBWuoOykkeI5cEIocRBSguIMsq0SOiQQQhlhXsoylq32K4zcboRlfBK3jTEt9KGErkskzrdFY1QUjGzU7opLBEQ2ziXEMqc+eCUZP9Epl/D0pqEUOwyCalUQBS1D4IupPeVEEoFTNfAPalDRmmmCeW0oGKllhRkxiYF7ZvEhBJTDKhUl09OyytWEhGVA50xdYeX3GmPtNxiQmn1aKgwIPYrvfpZJXCrgldHU+dbpgil1aOR1FpnFjwpStdnnUqhO2U4lPSjIkLhq5UpVZ34yTyG5VRlny5uZUSEkpqXiACepQcba+BuE9kjJgnAEaFkVwplNy96cAr2G50r6d9nktVEhLKal7GaBlp41xW5rhRxphGhrOZlJHuJ96LMpeRBE98lEBFK62CEj3ehbFQOtljzPfyF67xrglCO8zZsZzhdWfTN3sumYq2mVUcOZFwiRoQSxgzAq676YaSlAKpmGLX6q7UUSBsnNEUTQusNguy359CXnoLkWz+DL/orCZaMAuKOUGx7FlpvECX3IAFFFi1rPWT3EJKuirdk1BbeEQrcgQEi+nCANJ0tpK4YDx3dGcZvgmzfSv4jsKTIh6IRhDVBhCAfw/CC7y7eEtUPHtvTtKKORk8n2v0ih2u01WxHKCRpMyydwAsp4mp01yK1o/VSUHWnav/xYCjGktGRlfg6SgpYb/ZE2ZAA0sG4A72rmOLtNcC/0ZwQgBRgSRsnPCvnS6HnpOGpQT8m7rPt0oo4GGcQBpClh6t9hhGWSbyTwEBTRU/S/EE4UuKHWo0po1SYJaM+xo6wRF/IrmbjqUEcSuxUhaex45UhOIL3fnZQLXFdU4zwr8JHcs72XGJwBrRH0zF0I9mXMWoiXT+6eJ9BhBD+JYZw/71/UMCB0jd9wb4CdZMGpsL3QAoiJLfnUFRxMveX2hnb6zEVbSAJItx3418k4EEd2kZvkAtkbMvEVLT9L4bQZnn4Rs0BpUx6nJrAOAwmLHyfqRBCyqogTRe20hySiPB5ezbTozsKtlYJwm+FCPe6ekRrUAMreODrgb9YWbebESq2sml/K0+osz7mRx3aiuFcJ3O29uwYis02AoBWRXJKgnBbgDDzjj+K4B6BJsjs6o1Ko96ZwXv1rNxAkWhZoE9mb3HCP/gPYTE+UsysNerTGfyEEfwIRPiDAsZwWu9VGA/B+XjFQH/ghI9/ch9h79O2zP64UV91Rs9VBd5SadOGiB3ccGkMl6OLwRTA7nv4Q4HU5o/HkoQW5R4KuLQ06IyWwyuQjQMsq8nwjDcD/voDXK+xlFn1urOiW/aa24p/4oSbvzk/n3rehrneWSvzBzsYDhrAQssq69RNBbwH/XtTjpB8LEz/SmzTvHlFGJJ7gzZB2P+H7+NkrB4L325kXBHB9oLT3f/TxwhNj+/0RMJdK/yjHXvOYRHJLGcK7uH9UtXv8nyaSLgrUhrzho2fhS+16foqTti65/i0jd95I/jG6ETEZB/wpDb3LYLw7pb9w0TNU7wMzxURc6sc3uz2jiB8+5f9w3gXV+gjQkjhD/TgWXv4940gfPCZpxL+eAZRD9HJkIPtpWJ/mIXhPxCEW2ZXg68FCnuITpbwJ1wyb7vt+luCcNO+ZPwsdkd48YdGMstBQ6/JOtIu2xuC0GwvGE+ITv6R/D0VYFagZRbrMwAXbXI/jfp6zvRJrKqTvdtgJxudFyO2FPz8VSUJ7yYsExFLuNeHAUS75CrjdvTu5C5F+OCzRESkOWYOZW/BSWQhjSym7uJl7EoTwq0/ZzhTMuvN+Oc3DF2eInuhvTqW7uI8dqUJ4bjdYvhu4tP0401NxnBck6Vx3EhsKkk1xXCdrXZ6j7Dqt/LjhTHcnWecVLksfevCSm7KMJTdNZsMudtly48PkRC+TxjiRTN83DtaTByIEJQaQTXVaDIE/fnkhUJ442v5Hw3TqAZaLR2KECA2WH8hRfNvKIQbj2GYQsQRHnVDwrNPUF+Cis4MXn/6Ghy2Ef4j9MHh60/pN76G/wjcSeVL8PqMJIRrlSOmgH/Z8jYxF7IfS3MZvKkCfyUE+2dIWP/4AehjSPjxM3j9OQQ5C98IQT4Eb3wICcM3wgXWT8EbH0PC8I16mlBh/JGpuaslWAjhy6TFVejjhJ8RwuD1Bwrhl+CNLxTC4I3PCOFnGiGbui1kGqKEW6/FUQafMOFty9smWOg9pG2NLTc9dcJzrU2/hxSkplzdmlMlvG8lSSlB+M3X2HzNaRPONf9bBmHfcwv4mlMj7LZcD+2XY7t37yYaYx18woQLDRukOOHW0/iNeGKE3ZaGelKC0ATDlNuIJ0a4AIM0+9km6ttE03iNeFqEXU2bvGFMOOEGDFNeI54W4QIM0g3GRNwn8NPlnomnRdjS3J84EkH4zdN43elJES40zfuGI5H3eky4jXhKhMCRui5BRBI++Jo25zrsCREac01LmmwZhCBgaHzZ6QkR3gMTeqktDsS/1e/AiO4vSugCE34ngVKEfWhEHmdzOoQLaML855eqb8CIPM7mZAiBm9F8PNrTCfttTeMphU+G8Bxcd5uchdRnQUN3ytHPOBXC2xbFkdIJTd/lGacnQgjHqDthe563euPxjNMTIYRj1LtR06Lev/oKjcjqT0+DcAFN+KpSRCV8hM6GNe6fBCGI9cCEj8yE6guoEzWmZYzTIOzCy0XbwLmEobNhm4qnQAgnoevz/EZJUEWBqchy/OMTGotgjBJVUw4hbLsBRJbFqOMTwkhINNgYCGF6yuZtjk4YeBlKQppDCDuLUPmB/9iEgZchOohMhOq7Dz+ZX0gdmbALx5rmv2dyZBOqWjBOcx3qkQnPAztoaqb2EG7agf3zEI9LGABqbbyByEoY5qdaK2c96qiE81YASMtHWQjVF58B8ZiEISCl7GUlVH9O8hGPSBgCTogWMBeh6bq5iNFejM9A8V4MqIgweCPaiwEV7cUI3oj2YgT/2BEGr/MJz1uhlynze8DA24SIe9xNtJ/mK9Cn3X6a4HW0nyZ5Q/36KXmjEr7RSN74uttPE76m7KehAnp7vAwDISik3NCjZob+g+2JwtUNvajbppZMiPII1W9hzGhlZjfHIey6rTBOZOTbiXIJ1ZsQUdMyctSjEN7vrmlvnAiVT6j+L8xQsyoNYwh/1FCOxhk3ql+GBtS8VIe7EKH6PUKkt24OsUcY14IDkIlQfYsQs/3NAdU95wFkI1S/7+ZiK2syHlDRFNTalPZvYcLE3fDv1RCsaISyArISgqDhnsJIjUeomx8mOAnVbYTIs6YhWreRAV16b7QUofroTyLE+XHMGBtQm0xyUrVChGr/1deOacbYgJr/yvi0CU5CVX33YsTzQzvV+9iAmve+v5ooQag+xJPxwEO1O4/5XFYnWogQmYwHDRzJANUmPrOPKUSo9n94CaJ7mOl46yaA3g+OKViIEIxUDzGjy3pvrRg+1+MbocUI1U3iU+XbEeUDPpQ9SJQhBPVU4nBgrrqQ5XO6Cw3hm7Bl2kII1c1PD2VszWXEjvt5C+FzvZ8FDFiYEN7phgxVGB9vxRqye3uO8gED5lfzYglV8609wRhFGvISMx/ke+F1oeUJwVD9gQ7VcEaKgLycaxgeiPE/ig3QsoSg3nglGVva/LLMcO1C6xF83s/MtUHphIBRIxgh5XlBU94vzgk6yKeV4itNSLFjRMlly+4lhQ7Ov9eSfAIIAeNPb5K6NkjpAsz7PM7u/e3iXKPQae6k/aM0nxBCkI+/e37akCFmSzufL24vL+/vu90dLXjRvb+/vF0s5sBw5LyL+HzvrYR/SSSEECTkN5o3oUPuQEMQd7eY1cok25nPc28KxwdcggiBHl+8fZDsAnj+G2eJtEfiCEESsH33y0JCvHcBsy+RSEIVQgJL+gUp3YkPrLflaVEwSDAh1ObhzuemDOjuHsQNzlgSCIHMx5t3r82ICeHa3t3No2Dj7SSHMNBm+3D36oFBC0DdNCr428T3wfuvdw9bIXGBLomEgczN9ubh5YcGUXD52o+Xh5vtRo7lEskmjGX2N5vHxy3U4+NmM5YNFutghEfTb8JfX78Jf3399wn/D0gWwkz7t85DAAAAAElFTkSuQmCC;" parent="1" vertex="1">
          <mxGeometry x="719.5" y="-419.99999999999994" width="60" height="60" as="geometry" />
        </mxCell>
        <mxCell id="_Oc1O_q76i6-kQ9JLxwn-21" value="" style="shape=image;verticalLabelPosition=bottom;labelBackgroundColor=default;verticalAlign=top;aspect=fixed;imageAspect=0;image=https://www.docker.com/wp-content/uploads/2022/03/vertical-logo-monochromatic.png;" parent="1" vertex="1">
          <mxGeometry x="630.5" y="-388" width="50" height="42.78" as="geometry" />
        </mxCell>
        <mxCell id="o5UvQWIh1D4CBzxNLM2H-3" style="edgeStyle=orthogonalEdgeStyle;rounded=0;orthogonalLoop=1;jettySize=auto;html=1;entryX=0;entryY=0.5;entryDx=0;entryDy=0;" edge="1" parent="1" source="o5UvQWIh1D4CBzxNLM2H-2" target="_Oc1O_q76i6-kQ9JLxwn-15">
          <mxGeometry relative="1" as="geometry" />
        </mxCell>
        <mxCell id="o5UvQWIh1D4CBzxNLM2H-2" value="" style="shape=image;verticalLabelPosition=bottom;labelBackgroundColor=default;verticalAlign=top;aspect=fixed;imageAspect=0;image=data:image/png,iVBORw0KGgoAAAANSUhEUgAAASwAAACoCAMAAABt9SM9AAAAdVBMVEX///8AAAAaGhrt7e16enq4uLjq6uqNjY2pqamAgICRkZHb29vz8/MtLS0jIyOKioqenp4NDQ3h4eFiYmLOzs7Jycn4+Phqamq8vLwzMzOurq5ycnKEhIRCQkI7Ozubm5tXV1dNTU1dXV0TExMfHx8/Pz9JSUnYXnWpAAAJyklEQVR4nO1d7WKqMAwdUxHFbc4rirhN3Nf7P+IdIKSlaaFQDK2en4i1PbZpkibpw8Mdd9wEdn64jf6wDf0ddV9GDD8+7Q8eh8P+FPvU/Rod/GTvSbFP7oRV2Cyf5UwVeF5uqHs5CgRPTUwVeAqoe0oNf9GOqQKLW16OvkJQ4djfKl2roy5VGY4r6n5T4NSFqgwn6p5fHeFjV6487zGk7v118dadqgxv1P2/IvxGvaoJzzcj6OO+VGWIqUdxHbyY4MrzXqjHcQ18muHK8z6pRzI83k1x5Xnv1GMZGodmDtrjQD2aYWGUK8fZ+jDLled9UI9oOKSmufK8lHpMQ0HLHdMWC+pRDYNkCK48L6Ee1xDYDMOV57nocK6PcRYHU30b8RjE8bn2jHpk5lF3ihaOA3+t46qZF5Moqj3eU45rCNQH6G2rT37aMfUKwqn+UUQypOEgjJ35bNvmfIeV4/8UjTkAQWtIuY+rjfKwf1kncbTdRvEsWB4rQ5J3MazrrTmlP4g74bz2xtE7vMTIvjaJTmfvUPtgKzTn0o54Vq6qHDpRIL7Q3NlgZ4khzoR+js6d2N62+VuWALGf+21gYnvOWNTIxDJOljNTC3M29FqGK6TB1ExfqSGK4z+s+7SImpluHI6hB6rTPi2iZ2luHLxiI/O++rSIn2eb6i8lBKuwQB81Em/RBQtREoPVR8TgrnwXnA84V712ekQpdWMd4qtw2a/R0NF1iEY2fPdtdYq1an/0A+qr6j8HsFafDHSXFKh4MWDIoUGWtuevoCLLQGwV+ifYLrTQGWCiYUwjsT00FxvT0UTDmMlju6aFyfeZiYYxz4PtEh5bhWb8A9iBo5GGyTDByDLTNLbAJ2aaJgKmahtaLJi2a3c2AaY5GDqJEQ4PPdt1hxkyIkNRxgHStJGtgwxYTNaAZNkdq4WtlXS4pnt59smBKfCGwtexpu1W4bG/f8Dd0O6ZhQkWQ3oWlgdrd845GnRrxpNyRlq2W8CjJ3xm4oOwlu3OqxvKneWkQws9WagHsnUCFm1iubmDOVK8HxMto15Fy8sYYEMyIuHRvEUD7VICzZkzYMKhU9b2iDa0Kkjav11UgTPiryYEpsKb8JV+Y83arcBLNq3+cet4UID1oZLoqHr7f/EMKSMdpgSemZP2axSVWGZUElIs8anVy4pDo1R7h+aMALjQ6mcgStIU7dbfc0jI6iG2zpIWDXaaCmgoVYau+oOMKxdSw2TrsKOPYCJNTrReccggJavLXJCn8L+a7zkBVMX9NK3EUFFyxO7DihKMzfu9DAJehn1p6BDRr4J2290zJcCYLvSF2lLax21cNtuGMoG2G9ElIC/pEm22qzujfuZYym8JPzo1V7FxJvEXirGll0mEDh4NzY6/GnnK4E6ZNjbl7SLSEaegpBhWuzq5zkwsPvCsOAhFPJ0yJbUNV65IrAwcNYXyKDgOpBmIbaojObIVFuB0rUJunWvjlZvBzVzZ7iKtgXUUXPZE3jOsUMAbC6E/X2cMVwN32losxB0n5BVSp3EdOiTdC7BOwHLfmzPPFIYPnjAHsN/pJ4A160p/w+pUeJ33iUqJR+PDAbafFmJgd8SUfd7oBZQkrpZwaicswTq29KSMkisn3FgiGNVKr3Stiiu7g/0UYBwHWglcCq5c8CVLwGhMqcbX5FzZnjSnBFutr/0CknLljq8BBVfb8DjbFCqDvw1Ue6KMq3/X6TMdZCdjqv1R8hWXXA0SSM7z9ckyEpo6duCXo2iTZXcGWGtsXvXIQjV454xnKYQStsqoDoSs9Fo9HQPEpE2tmWV32ok2dvXrdzTIOjtpOisR8bUG2i9DuxN0uiJoSRZ33OGYu10Da12y3Ij+6IqkDLdqYe58OeuOaY0wN4CUVUbz9bp31MuniyhpiJ3dJLcp1e+444477rAO4ez0tlgs3uanJHKjOPtAmKzrYaLn0+14nLTgI/6pP3xoZh4Fr88FeNtnd3n6/NjugALeH+Phj/RiaOjs7PNwPjVFcMNZBucyhoS5dkkUTByJ9lCGxk5+KW1Qe6XBYGkk67FVh4Cs0WWooDUDLihXU5WbpJb77pOlup/w8gpE7qmFiPNkqS5nTy/vMBkC5ddW/iSHz3qIXScLPwO8oPTUMSdfpToh0vfgPlkCQa+Hj0O5Mkt5zqRT+vXvseNxnCw+8v89KSfObjObwqRhboIsH90iWWwS0lddMai2PkjdqfzCIn0PrpPFRomqCmqWEzCtntwgWUzYo3ocUS7jmXj1GySL2eaazMAw4lbp7ZHFVDnRjcHTIQsGbzNZjJKltvpWF8DZIIxnl3+S29hDkLWbHXPN5XFPHM/FxPAp34OQmUJqhYHo0snYakcWlE2qtltI0Iu4978nXEIZ6ck/DFkdYQ3a2Pzvr8ZzwzOzB8jiTgnBVM/JAhW3kpPwr2Usy1N9fgcgoS3AN6M+V+fIQq8IrZN1XDMAKvqSZapgeBdAJ9RVZfTJkqA3WYRBu9CHyt2+fOHwlgv+EZFFdn8K4/ZbiY8K5FniYyKr18W5PcCoWeUjgaw8D2lMZFG55Y2SxasOxsj6DcLJZMsqEESFvbuR9RD+gWFsE+YPsveMk3UoZSkTYUiUUN2RrBziVx8GIAuMMDgCTgfjQwmGLKmAHwtZYJkR2YsMM774qBdZn1nQRAl43J0spmNDUqIAdKC0o02RZcjcYXwh8INEF7dCB6r0kDDa/gE635EslT+rG1lQVYJILQWpWUvrnvEfjIEsKBdIRBaUAas5mkZI1pmaLOYgjI/FGiFZ5DOLOdzhy/WNkCyQWVQ3c8OQ+S6MkCw44TRJgA4Y7zB3YjFCstAfvCrYsBDW5tIgS//4vhNZ0AbddQQMWWyVhSvNrMqB0EwW9IiuGARfo2F++asnUHGtmSzmdLYdWSCqq0yyF+6LGFlwXEB4xOM1QEYW1Ev8Bq2jHVnM6VBhZYWMu6rmz9pf/opj/TskwK4+bkMWGzD4tD9+HnhPqYosJoDJ+5gu+NBD0VOaHqfcK9dkpw5VmKSCLKFGfDa/2pGl/H8a3cq09WuktyQoyRKcy+3JUoVHN5NFe4PKTsmWjCzG/NAlCys30posQ1fJd4eq81Ky6lNLgyzJFUWtyKI6NgTIQ5aLeGWMrLro0SAL+72Pd5GsN/HCi1HkpAdYhfvHUqUBslh7m79iJiMLNngJWeVWVr+D7nlWBiEmzPuxcF/gWK58Cpd8Dt3vCXq2Kj3qU96TE8Bf/y8zxKNp+R6ftlI55CH+ZM1IykU2X8LjdFp+8fJ+1uQMtLKncVWF2ESz9Wm5XCdR21TDXRgnQbdUztU2WS9PQdz43TAO1n9dopdWd9whw39H7XZx3Tge1AAAAABJRU5ErkJggg==;" vertex="1" parent="1">
          <mxGeometry x="156.5" y="-420" width="107.14" height="60" as="geometry" />
        </mxCell>
        <mxCell id="o5UvQWIh1D4CBzxNLM2H-9" value="&lt;font style=&quot;font-size: 14px&quot;&gt;Data&lt;br&gt;Science&lt;br&gt;developer&lt;br&gt;&lt;/font&gt;" style="text;html=1;align=center;verticalAlign=middle;resizable=0;points=[];autosize=1;strokeColor=none;fillColor=none;" vertex="1" parent="1">
          <mxGeometry x="100" y="-131" width="80" height="50" as="geometry" />
        </mxCell>
        <mxCell id="o5UvQWIh1D4CBzxNLM2H-10" value="&lt;font&gt;&lt;font style=&quot;font-size: 14px&quot;&gt;Git&lt;/font&gt;&lt;br style=&quot;font-size: 20px&quot;&gt;&lt;/font&gt;" style="text;html=1;align=center;verticalAlign=middle;resizable=0;points=[];autosize=1;strokeColor=none;fillColor=none;fontSize=20;" vertex="1" parent="1">
          <mxGeometry x="141" y="-265" width="30" height="30" as="geometry" />
        </mxCell>
        <mxCell id="o5UvQWIh1D4CBzxNLM2H-12" value="&lt;font&gt;&lt;font style=&quot;font-size: 14px&quot;&gt;AWS Codepipeline&lt;/font&gt;&lt;br&gt;&lt;/font&gt;" style="text;html=1;align=center;verticalAlign=middle;resizable=0;points=[];autosize=1;strokeColor=none;fillColor=none;" vertex="1" parent="1">
          <mxGeometry x="325.5" y="-448" width="130" height="20" as="geometry" />
        </mxCell>
        <mxCell id="o5UvQWIh1D4CBzxNLM2H-13" value="&lt;font&gt;&lt;font style=&quot;font-size: 14px&quot;&gt;AWS Codebuild&lt;/font&gt;&lt;br&gt;&lt;/font&gt;" style="text;html=1;align=center;verticalAlign=middle;resizable=0;points=[];autosize=1;strokeColor=none;fillColor=none;" vertex="1" parent="1">
          <mxGeometry x="508" y="-448" width="110" height="20" as="geometry" />
        </mxCell>
        <mxCell id="o5UvQWIh1D4CBzxNLM2H-14" value="&lt;font&gt;&lt;font style=&quot;font-size: 14px&quot;&gt;AWS Elastic&lt;br&gt;container&amp;nbsp;&lt;/font&gt;registry&lt;br&gt;&lt;/font&gt;" style="text;html=1;align=center;verticalAlign=middle;resizable=0;points=[];autosize=1;strokeColor=none;fillColor=none;" vertex="1" parent="1">
          <mxGeometry x="689.5" y="-458" width="120" height="40" as="geometry" />
        </mxCell>
        <mxCell id="o5UvQWIh1D4CBzxNLM2H-163" style="edgeStyle=orthogonalEdgeStyle;rounded=0;orthogonalLoop=1;jettySize=auto;html=1;entryX=1;entryY=0.25;entryDx=0;entryDy=0;fontSize=60;" edge="1" parent="1" source="o5UvQWIh1D4CBzxNLM2H-143" target="o5UvQWIh1D4CBzxNLM2H-159">
          <mxGeometry relative="1" as="geometry" />
        </mxCell>
        <mxCell id="o5UvQWIh1D4CBzxNLM2H-143" value="Amazon&lt;br&gt;SageMaker&lt;br&gt;" style="outlineConnect=0;fontColor=#232F3E;gradientColor=#4AB29A;gradientDirection=north;fillColor=#116D5B;strokeColor=#ffffff;dashed=0;verticalLabelPosition=bottom;verticalAlign=top;align=center;html=1;fontSize=12;fontStyle=0;aspect=fixed;shape=mxgraph.aws4.resourceIcon;resIcon=mxgraph.aws4.sagemaker;labelBackgroundColor=#ffffff;spacingTop=7;" vertex="1" parent="1">
          <mxGeometry x="618" y="-280.0000000000002" width="60" height="60" as="geometry" />
        </mxCell>
        <mxCell id="o5UvQWIh1D4CBzxNLM2H-182" style="edgeStyle=orthogonalEdgeStyle;rounded=0;orthogonalLoop=1;jettySize=auto;html=1;entryX=0;entryY=0.5;entryDx=0;entryDy=0;fontSize=60;" edge="1" parent="1" source="o5UvQWIh1D4CBzxNLM2H-144" target="o5UvQWIh1D4CBzxNLM2H-168">
          <mxGeometry relative="1" as="geometry" />
        </mxCell>
        <mxCell id="o5UvQWIh1D4CBzxNLM2H-144" value="&lt;font style=&quot;font-size: 14px&quot;&gt;Execute Containerl/model&lt;/font&gt;" style="outlineConnect=0;fontColor=#232F3E;gradientColor=none;fillColor=#D05C17;strokeColor=none;dashed=0;verticalLabelPosition=bottom;verticalAlign=top;align=center;html=1;fontSize=12;fontStyle=0;aspect=fixed;pointerEvents=1;shape=mxgraph.aws4.lambda_function;labelBackgroundColor=none;" vertex="1" parent="1">
          <mxGeometry x="850" y="-280" width="60" height="60" as="geometry" />
        </mxCell>
        <mxCell id="o5UvQWIh1D4CBzxNLM2H-162" value="" style="group" vertex="1" connectable="0" parent="1">
          <mxGeometry x="564" y="131.75" width="404.0000000000002" height="78" as="geometry" />
        </mxCell>
        <mxCell id="o5UvQWIh1D4CBzxNLM2H-155" value="Amazon S3" style="outlineConnect=0;fontColor=#232F3E;gradientColor=#60A337;gradientDirection=north;fillColor=#277116;strokeColor=#ffffff;dashed=0;verticalLabelPosition=bottom;verticalAlign=top;align=center;html=1;fontSize=12;fontStyle=0;aspect=fixed;shape=mxgraph.aws4.resourceIcon;resIcon=mxgraph.aws4.s3;labelBackgroundColor=none;" vertex="1" parent="o5UvQWIh1D4CBzxNLM2H-162">
          <mxGeometry y="9" width="60" height="60" as="geometry" />
        </mxCell>
        <mxCell id="o5UvQWIh1D4CBzxNLM2H-156" value="&lt;font style=&quot;font-size: 13px&quot;&gt;Data dump to&lt;br&gt;CDO data mart&lt;/font&gt;" style="outlineConnect=0;fontColor=#232F3E;gradientColor=none;fillColor=#BE0917;strokeColor=none;dashed=0;verticalLabelPosition=bottom;verticalAlign=top;align=center;html=1;fontSize=12;fontStyle=0;aspect=fixed;pointerEvents=1;shape=mxgraph.aws4.fleet_management;labelBackgroundColor=none;" vertex="1" parent="o5UvQWIh1D4CBzxNLM2H-162">
          <mxGeometry x="161" width="78" height="78" as="geometry" />
        </mxCell>
        <mxCell id="o5UvQWIh1D4CBzxNLM2H-157" value="API&lt;br&gt;" style="outlineConnect=0;fontColor=#232F3E;gradientColor=none;fillColor=#232F3E;strokeColor=none;dashed=0;verticalLabelPosition=bottom;verticalAlign=top;align=center;html=1;fontSize=12;fontStyle=0;aspect=fixed;pointerEvents=1;shape=mxgraph.aws4.external_sdk;labelBackgroundColor=none;" vertex="1" parent="o5UvQWIh1D4CBzxNLM2H-162">
          <mxGeometry x="336.0000000000002" width="68" height="78" as="geometry" />
        </mxCell>
        <mxCell id="o5UvQWIh1D4CBzxNLM2H-183" style="edgeStyle=orthogonalEdgeStyle;rounded=0;orthogonalLoop=1;jettySize=auto;html=1;entryX=0;entryY=0.5;entryDx=0;entryDy=0;fontSize=60;" edge="1" parent="1" source="o5UvQWIh1D4CBzxNLM2H-165" target="o5UvQWIh1D4CBzxNLM2H-168">
          <mxGeometry relative="1" as="geometry" />
        </mxCell>
        <mxCell id="o5UvQWIh1D4CBzxNLM2H-165" value="" style="shape=image;verticalLabelPosition=bottom;labelBackgroundColor=default;verticalAlign=top;aspect=fixed;imageAspect=0;image=data:image/png,iVBORw0KGgoAAAANSUhEUgAAAOEAAADhCAMAAAAJbSJIAAABIFBMVEX////1hTSdUSWXTSSfUiX5hzWaTyXugTO+ZSr1gy73nmGiVCaYRQhrOxnk08v8v5KbTR7JayyxdVX1gSP/+viaShfCmIP1gSrkezH0fR64hm38vIyXSRuXQwD+9e7xgzN2QBzu4tzWcy+PSyJvPRqCRR9jLAD6x6n96+H1ij/70bi0Xyn6wp97Qh1jNxhkMQD959qUOwD4r4P83cv2kk74rX2zfGD2kkn5uZHdxbr3pnHRsaFlNA7bdy+3o5b90bLhoHStZDnGglfTkWb3m1zAgmHIYxaxWBfgtp7KppOnZkbx6OThzMKHQQx4MwDh3NjFtq2kjH2RdGSIZlJ/WEB2SixeIgC7qZ6lj4PTaxZyRSfIeEO0bELcm3DKh1z/3MGq9nyzAAAJ7ElEQVR4nO3dfVvayBYA8CaQSIS6wRAgWEREqwhekRdF1CKWdXdLe9W+bN+sfv9vcc/MJDaBgCHkZeKd898+PGvyY87JTMI058ULFixYsGDBwqso7+yGfQq+RrlwqGjVbms97BPxKcqFlBoTOCmnScs7jbDPxvsYFVSV50GIQlKUarMV9il5GpCf4HsUImRO04Y7u5mwz8ybKBeK2GcWkqHUjpvPoCpR/fG8nZAMJRfxqhyZfDZCvSq55l5k8zWb4vknhCigKpfr0Zwrs6ojIanKdhSr0rmQVGVpOWrLnrmE+lByzVaEqnJuIalKpReZudKVkKO7Kst75vNyK+RwVUpD+uZKWJ9pmtTZaeg5toBQH0qp+UBRvqL1S3wJCgkuFz18m7SgEAVU5XK9QYWSrM+QUE8yrt38U15YSP7WcWcv7KosH5H1tSEkZ5YQvRDiP6Uow3qIVQn1p4+WWcgJngmxEs2VIQ3l4/2Rr0IUOS0XSlWaqs1nIUceEfSCHko+SCFHHhEcBzqUQQt1JdfZC2qdHoYQBVTlsB7IM62whByeRrgAqjJEIVaiqvT3litkIUeqsudjVYYvRAFV2e76VJV0CDk8lIq5Kkcn2a4n6UuNECsV7bj7sJ4pn2YHh6lXcAPmwaqdKqEgCKXvV38NiilVJsckS73nIQTd0mYiyYuiaD3mor8G0SBEQ5ffTMRjsSnHREs91zNn2EI0dPl0LRkTLcebPCZ+YOBmTnEqLPmkO0/U4jY6228VFkHt+Z/IOhUucZ6GoJedKNrrpuUNeow3Z76GIMRll66Nl50jIVain2ipFeLETE9NTEdCjHSeqwEK9cR0pHtCyCnBCksldPZP4Lj8prOho1GYryRr6fOl0lSm48SkVhiDlUhMTNYSm3nEHDszIS/OraNPiAMx40lgchamcB6bn0en8NEZs2StcO5iAF0IM6OTv20e4nkvNJjiI9N34Xr55J/CO7WYutKqE79d+iQ0mDwqzrR/QmQ7esenUiq63xLTAtnns+u18JUs89NixrJsIWFm5eSfVV4F2++DgxB9iO63fj8T8UAotLOrA5XctXoZM+9nkoc2B9SFHFm/6s8HPBBKy6jKV06zq8mil87ZQrv/47cQBXo+APnqkdC4mr0/zb4r2n29IQjRqSk5b4V6gLPwTlSL6mJOD4QQvgjJeJZXTgurfNG9k3ahOW/dEaMhxLGS4t0EEzIhEzIhEzIhEzIhEzIhEzIhEzIhEzIhEzIhEzIhE/4/COMQMUGY3PYQaWEcBzrRWKWyvb2/UUnWEuiHcrxdZwwbGWFcZ4kxrALWxtbLx/gPjpcb23gny3ke7wogVqqF8d+sChmsjS0TyzYIdWt/u6JbKRMW4+bRIqonUROxtbWxvw/jvF2pTNsaEZqQFysf/gtxAHF2dvb0cGHP1gYWwThXYuLjyJNSnQjyQXry4hSI8EVmNLq+vn5/8/Xb7e3HT5+/bL3+99/XEAcH5hHSRYk0ZCHawDKDZP4I7VAi6b69v63nsOnSFIxwzAsxul65ufn65tsXnHQwRnhTCjrjJDm3KSDjooQ9uIC3JjIAsuTgw4fUX1dX379rWhhCc6zK42MUJ4fHZhJmkBlzhgMS/zUJVAEvf/z4/PnTx9vbN19vbm5Wrq/L4QsnEpAcPp2oJfnK9v4Wrkt8/jgQBVL84OzHF6B8+qhjVlZAMxrZ7eejVGgUUmlpKZ8/37y5eQMlfPvtDdYgC2gcbk+kVWg6E0FQ3B8gCkJurt2kTMiETMiETMiETMiETMiETMiETMiETMiETMiETMiETMiETMiETMiE04WSJGkLAKkVCoIgSQJXPT5uD5eXH/b6O/V6faff7z88tFqNxu7u7vr6uqMfSSkVComfl29/XVw01/4YjzUj9P+2uBGbNqH8CkKWZV62CGOiiD9BHyaTg7u7y/v7t8jcXetOqk1uYq/Xgd3f29vZCVyYycDXvNtotUjidbsXFxe/3t5fXt7d3Q2ScfmVmpNQjL8QBb6DR3E8OQDy3eXl/dtfYL7oWsxrzU6ntzxsV0voffdKIMJMebfRaD30+1BKpu/bZiS6f3SbnV4PTvDybjBIGia7t8PIvGGW0XaVAUJf/mxXqyUOf0WSfnbB7Po6TKVUyDRcWXawGbH2OMaDARlLIIm8/TtvYiHvTTTSLA5fN0owyK7ufFw0ygC+v/xZs93cRsvuS4yVjYq6I9oL2+uHZTT1+oICg7mEst2XM/cIEy0qNDy2aIoYg/V6cN2ocpb6ipJwUoszGcZ2uZ1fypFL68SZR1VoiZg0/ZjPRPis/zUCEzIhEzIhEzIhEzIhEzIhEzIhEzIhEzIhEzIhE9rE++crNN627wpIuZC8kX2QWuQN+9QK8Vv1+YXfqk+jMDM6OS0MUGMEVbb9eS8MoeSNMGP0eVFV3rtYXCgpWtubLixiMTU9J123YZkplO3SxCLMaRpuOOOJcFo/J9QxSKwlEu6IM4WFgWrtMWMRSjlF6u2RnTU+CUXSJyh9vuRTNyQ49TKaikiDG9kslBTF3FzYeyF6X0y8lkiTt8SgP+Vnvyc85R4NSIMbEKKuwpZmSN4KEY6vpTfzlmZ6AfTsyqBr3VHy8Erp7Pmw64t0loPrCcpKu85yAXUlA6hdJ1ZvhLht3tKU98c9g85yJbuegOZvwEXzQ7qETwZuYMnPq4ySkOPmbkIaPaGhnKNfZwSFutJRM+CZQlhvei/0smu1k4bOU4WwIMsNd+Zo0O1UOGuN6JY5qym3/TGlnFadt8l6aEJDOaWxus0x0b1Qd+7G4+EKdWUpv5mwKUzLMXOoGbeb5vHhCw0mKkzrveTjMSE3S72J9Wa0hIYS5hJVNR4UkGO6zE0ahRweLKX392l2cIjuheCY6D69vrvIv3qiSZhTtKoxWKOT7CCV0nLuc5M2IZkFrBeSzPvWlHOOnBBdJheqNKqFqPI6c07h0RGi9Ve73vBTF6YQJoFjnwcvTCGeBGwavT8PIQye1PRgEnAccpBC0trd98qzRiGlBiREy69mK4jKG4ty4VD2XSiRR9EB5qbVeFRUx4VSzjuhpChVH2d0Z0acq4YQFoilYfdP2QshXo71Xd3XeRzIiIRo+durN6BasurCQrIcC6Hy7APqUdO4Tt8olgWFMHhar0+NjkTZssRYQAi6nPkXPErDrdDuRojOcCVElRfYcmzRmFsIM3pu8vdJimMuIVqODf2/EfI2nAuBdxzKcmzByKYcCdF9Xje05dhCMTKtyacIYfCkeX9FoCrKJuOkEOa8If1z3lNRLhRVOyGkJteJxJz3dMBaTrUK0XLsODJznpMYFdDvCLoQ3Qh58RyaskD1iIRQeYE/gggqIFeh8ii6EfIhyu5+nWTBggULFiwiEf8DSF4R7RVfEn8AAAAASUVORK5CYII=;" vertex="1" parent="1">
          <mxGeometry x="1168" y="-280" width="60" height="60" as="geometry" />
        </mxCell>
        <mxCell id="o5UvQWIh1D4CBzxNLM2H-166" value="&lt;font&gt;&lt;font style=&quot;font-size: 14px&quot;&gt;AWS Elastic&lt;br&gt;container service&lt;br&gt;&lt;/font&gt;&lt;br&gt;&lt;/font&gt;" style="text;html=1;align=center;verticalAlign=middle;resizable=0;points=[];autosize=1;strokeColor=none;fillColor=none;" vertex="1" parent="1">
          <mxGeometry x="1028" y="-215" width="120" height="50" as="geometry" />
        </mxCell>
        <mxCell id="o5UvQWIh1D4CBzxNLM2H-184" style="edgeStyle=orthogonalEdgeStyle;rounded=0;orthogonalLoop=1;jettySize=auto;html=1;entryX=0.5;entryY=1;entryDx=0;entryDy=0;fontSize=60;" edge="1" parent="1" source="o5UvQWIh1D4CBzxNLM2H-168" target="o5UvQWIh1D4CBzxNLM2H-159">
          <mxGeometry relative="1" as="geometry" />
        </mxCell>
        <mxCell id="o5UvQWIh1D4CBzxNLM2H-168" value="" style="rounded=0;whiteSpace=wrap;html=1;fontSize=60;rotation=-90;labelBackgroundColor=none;fillColor=#E6E6E6;strokeColor=none;direction=west;" vertex="1" parent="1">
          <mxGeometry x="978.75" y="-275.44" width="142.5" height="467.37" as="geometry" />
        </mxCell>
        <mxCell id="o5UvQWIh1D4CBzxNLM2H-175" value="" style="shape=image;verticalLabelPosition=bottom;labelBackgroundColor=default;verticalAlign=top;aspect=fixed;imageAspect=0;image=https://miro.medium.com/max/393/1*BCgeXMygZAH_xXzKG8vvQQ.png;" vertex="1" parent="1">
          <mxGeometry x="899.75" y="-79.99999999999999" width="60" height="60" as="geometry" />
        </mxCell>
        <mxCell id="o5UvQWIh1D4CBzxNLM2H-176" value="&lt;font&gt;&lt;font style=&quot;font-size: 14px&quot;&gt;AWS Fargate&lt;/font&gt;&lt;br&gt;&lt;/font&gt;" style="text;html=1;align=center;verticalAlign=middle;resizable=0;points=[];autosize=1;strokeColor=none;fillColor=none;" vertex="1" parent="1">
          <mxGeometry x="878.75" y="-7.999999999999991" width="100" height="20" as="geometry" />
        </mxCell>
        <mxCell id="o5UvQWIh1D4CBzxNLM2H-177" value="" style="shape=image;verticalLabelPosition=bottom;labelBackgroundColor=default;verticalAlign=top;aspect=fixed;imageAspect=0;image=https://cdn.worldvectorlogo.com/logos/aws-ec2.svg;" vertex="1" parent="1">
          <mxGeometry x="1128" y="-86.27999999999999" width="60" height="72.56" as="geometry" />
        </mxCell>
        <mxCell id="o5UvQWIh1D4CBzxNLM2H-178" value="&lt;font&gt;&lt;font style=&quot;font-size: 14px&quot;&gt;AWS EC2&lt;/font&gt;&lt;br&gt;&lt;/font&gt;" style="text;html=1;align=center;verticalAlign=middle;resizable=0;points=[];autosize=1;strokeColor=none;fillColor=none;" vertex="1" parent="1">
          <mxGeometry x="1119.25" y="-12.719999999999992" width="80" height="20" as="geometry" />
        </mxCell>
      </root>
    </mxGraphModel>
  </diagram>
</mxfile>
